<?xml version="1.0" encoding="UTF-8" standalone="no"?>
<!DOCTYPE svg PUBLIC "-//W3C//DTD SVG 1.1//EN" "http://www.w3.org/Graphics/SVG/1.1/DTD/svg11.dtd">
<svg width="100%" height="100%" viewBox="0 0 3840 2160" version="1.1" xmlns="http://www.w3.org/2000/svg" xmlns:xlink="http://www.w3.org/1999/xlink" xml:space="preserve" xmlns:serif="http://www.serif.com/" style="fill-rule:evenodd;clip-rule:evenodd;stroke-linecap:round;stroke-linejoin:round;stroke-miterlimit:1.5;">
    <g id="Wordmark" transform="matrix(2.343823,0,0,2.343823,-1359.848867,-1781.897568)">
        <path d="M885.963,1033.555C885.963,1047.129 882.752,1059.855 876.328,1071.732C869.905,1083.61 859.845,1093.184 846.15,1100.456C832.455,1107.728 815.184,1111.364 794.338,1111.364L751.797,1111.364L751.797,1208.807L700.894,1208.807L700.894,955.019L794.338,955.019C813.972,955.019 830.697,958.412 844.514,965.199C858.33,971.986 868.693,981.319 875.601,993.196C882.509,1005.073 885.963,1018.526 885.963,1033.555ZM792.156,1070.278C806.215,1070.278 816.638,1067.066 823.425,1060.643C830.212,1054.219 833.606,1045.19 833.606,1033.555C833.606,1008.831 819.789,996.468 792.156,996.468L751.797,996.468L751.797,1070.278L792.156,1070.278Z" style="fill-rule:nonzero;"/>
        <rect x="889.236" y="939.748" width="50.903" height="269.06" style="fill-rule:nonzero;"/>
        <path d="M1189.201,1049.19L1189.201,1146.633C1189.201,1153.42 1190.837,1158.328 1194.109,1161.358C1197.382,1164.388 1202.896,1165.903 1210.653,1165.903L1234.287,1165.903L1234.287,1208.807L1202.29,1208.807C1159.386,1208.807 1137.934,1187.961 1137.934,1146.269L1137.934,1049.19L1113.937,1049.19L1113.937,1007.376L1137.934,1007.376L1137.934,957.564L1189.201,957.564L1189.201,1007.376L1234.287,1007.376L1234.287,1049.19L1189.201,1049.19Z" style="fill-rule:nonzero;"/>
        <path d="M1514.981,955.019L1514.981,1208.807L1464.078,1208.807L1464.078,1043.736L1396.086,1208.807L1357.545,1208.807L1289.189,1043.736L1289.189,1208.807L1238.286,1208.807L1238.286,955.019L1296.098,955.019L1376.816,1143.724L1457.533,955.019L1514.981,955.019Z" style="fill-rule:nonzero;"/>
        <path d="M1515.708,1107.365C1515.708,1087.003 1519.769,1068.945 1527.889,1053.189C1536.009,1037.433 1547.038,1025.313 1560.976,1016.83C1574.914,1008.346 1590.488,1004.104 1607.698,1004.104C1622.726,1004.104 1635.876,1007.134 1647.148,1013.194C1658.419,1019.254 1667.448,1026.889 1674.236,1036.1L1674.236,1007.376L1725.502,1007.376L1725.502,1208.807L1674.236,1208.807L1674.236,1179.356C1667.691,1188.81 1658.662,1196.627 1647.148,1202.808C1635.634,1208.989 1622.363,1212.08 1607.334,1212.08C1590.366,1212.08 1574.914,1207.717 1560.976,1198.99C1547.038,1190.264 1536.009,1177.962 1527.889,1162.085C1519.769,1146.209 1515.708,1127.968 1515.708,1107.365ZM1674.236,1108.092C1674.236,1095.73 1671.812,1085.125 1666.964,1076.277C1662.116,1067.43 1655.571,1060.643 1647.33,1055.916C1639.088,1051.189 1630.241,1048.826 1620.787,1048.826C1611.334,1048.826 1602.607,1051.129 1594.608,1055.734C1586.609,1060.34 1580.125,1067.066 1575.156,1075.914C1570.187,1084.761 1567.702,1095.245 1567.702,1107.365C1567.702,1119.484 1570.187,1130.089 1575.156,1139.179C1580.125,1148.269 1586.67,1155.238 1594.79,1160.086C1602.91,1164.934 1611.576,1167.358 1620.787,1167.358C1630.241,1167.358 1639.088,1164.994 1647.33,1160.268C1655.571,1155.541 1662.116,1148.754 1666.964,1139.906C1671.812,1131.059 1674.236,1120.454 1674.236,1108.092Z" style="fill-rule:nonzero;"/>
        <path d="M1778.951,1036.464C1785.495,1027.253 1794.525,1019.557 1806.038,1013.375C1817.552,1007.194 1830.702,1004.104 1845.488,1004.104C1862.699,1004.104 1878.272,1008.346 1892.21,1016.83C1906.148,1025.313 1917.177,1037.373 1925.297,1053.007C1933.418,1068.642 1937.478,1086.761 1937.478,1107.365C1937.478,1127.968 1933.418,1146.209 1925.297,1162.085C1917.177,1177.962 1906.148,1190.264 1892.21,1198.99C1878.272,1207.717 1862.699,1212.08 1845.488,1212.08C1830.702,1212.08 1817.673,1209.05 1806.402,1202.99C1795.131,1196.93 1785.98,1189.294 1778.951,1180.083L1778.951,1304.796L1728.047,1304.796L1728.047,1007.376L1778.951,1007.376L1778.951,1036.464ZM1885.484,1107.365C1885.484,1095.245 1882.999,1084.761 1878.03,1075.914C1873.061,1067.066 1866.516,1060.34 1858.396,1055.734C1850.276,1051.129 1841.489,1048.826 1832.035,1048.826C1822.824,1048.826 1814.159,1051.189 1806.038,1055.916C1797.918,1060.643 1791.373,1067.49 1786.404,1076.459C1781.435,1085.428 1778.951,1095.972 1778.951,1108.092C1778.951,1120.212 1781.435,1130.756 1786.404,1139.724C1791.373,1148.693 1797.918,1155.541 1806.038,1160.268C1814.159,1164.994 1822.824,1167.358 1832.035,1167.358C1841.489,1167.358 1850.276,1164.934 1858.396,1160.086C1866.516,1155.238 1873.061,1148.33 1878.03,1139.361C1882.999,1130.392 1885.484,1119.727 1885.484,1107.365Z" style="fill-rule:nonzero;"/>
        <path d="M2018.383,1212.08C2001.866,1212.08 1987.048,1209.11 1973.928,1203.172C1960.812,1197.233 1950.427,1189.173 1942.773,1178.993C1935.122,1168.812 1931.297,1157.541 1931.297,1145.178L1982.2,1145.178C1983.169,1152.935 1986.987,1159.359 1993.653,1164.449C2000.319,1169.539 2008.621,1172.084 2018.559,1172.084C2028.255,1172.084 2035.83,1170.145 2041.284,1166.267C2046.738,1162.388 2049.465,1157.419 2049.465,1151.359C2049.465,1144.815 2046.132,1139.906 2039.466,1136.634C2032.8,1133.362 2022.195,1129.786 2007.651,1125.908C1992.623,1122.272 1980.321,1118.515 1970.747,1114.636C1961.172,1110.758 1952.93,1104.819 1946.022,1096.82C1939.114,1088.821 1935.66,1078.035 1935.66,1064.46C1935.66,1053.31 1938.871,1043.13 1945.295,1033.919C1951.718,1024.708 1960.93,1017.436 1972.928,1012.103C1984.927,1006.77 1999.046,1004.104 2015.287,1004.104C2039.284,1004.104 2058.433,1010.103 2072.735,1022.102C2087.036,1034.1 2094.914,1050.28 2096.368,1070.642L2047.647,1070.642C2046.92,1062.642 2043.587,1056.28 2037.648,1051.553C2031.709,1046.826 2023.771,1044.463 2013.832,1044.463C2004.621,1044.463 1997.531,1046.16 1992.562,1049.553C1987.593,1052.947 1985.109,1057.673 1985.109,1063.733C1985.109,1070.52 1988.502,1075.671 1995.289,1079.186C2002.076,1082.701 2012.62,1086.276 2026.922,1089.912C2041.466,1093.548 2053.464,1097.305 2062.918,1101.183C2072.371,1105.062 2080.552,1111.061 2087.46,1119.181C2094.369,1127.302 2097.823,1138.028 2097.823,1151.359C2097.823,1162.994 2094.603,1173.418 2088.165,1182.629C2081.726,1191.84 2072.494,1199.051 2060.469,1204.262C2048.448,1209.474 2034.419,1212.08 2018.383,1212.08Z" style="fill-rule:nonzero;"/>
    </g>
    <g transform="matrix(1.069386,0,0,1.045421,-418.635477,-8.722878)">
        <circle cx="1397.095" cy="806.406" r="168.295" style="fill:none;stroke:black;stroke-width:89.55px;"/>
    </g>
    <path d="M1075.397,834.311L1075.397,658.372L1075.397,1010.251" style="fill:none;stroke:black;stroke-width:6px;"/>
    <path d="M1255.37,834.311L895.425,834.311" style="fill:none;stroke:black;stroke-width:6px;"/>
</svg>
